<?xml version="1.0" encoding="UTF-8" standalone="no"?>
<svg
   height="210"
   viewBox="0 0 149.07484 224.7"
   fill="none"
   version="1.1"
   id="svg4"
   sodipodi:docname="emacs-big-e-padded.svg"
   width="149.07483"
   inkscape:version="1.2.1 (9c6d41e4, 2022-07-14)"
   xmlns:inkscape="http://www.inkscape.org/namespaces/inkscape"
   xmlns:sodipodi="http://sodipodi.sourceforge.net/DTD/sodipodi-0.dtd"
   xmlns="http://www.w3.org/2000/svg"
   xmlns:svg="http://www.w3.org/2000/svg">
  <defs
     id="defs8" />
  <sodipodi:namedview
     id="namedview6"
     pagecolor="#ffffff"
     bordercolor="#999999"
     borderopacity="1"
     inkscape:pageshadow="0"
     inkscape:pageopacity="0"
     inkscape:pagecheckerboard="0"
     showgrid="false"
     inkscape:zoom="2.9075084"
     inkscape:cx="35.253552"
     inkscape:cy="113.84318"
     inkscape:window-width="1920"
     inkscape:window-height="1052"
     inkscape:window-x="1440"
     inkscape:window-y="409"
     inkscape:window-maximized="1"
     inkscape:current-layer="svg4"
     fit-margin-top="0"
     fit-margin-left="0"
     fit-margin-right="0"
     fit-margin-bottom="0"
     inkscape:showpageshadow="0"
     inkscape:deskcolor="#d1d1d1" />
  <path
     d="m 60.392569,29.859862 c 29.741827,7.5864 47.406461,18.62498 51.404871,27.14896 4.86828,10.37837 -9.39696,17.33208 -42.92255,10.82946 -17.320654,-3.36006 -26.176313,-0.98974 -29.15767,3.08266 -13.185821,17.99169 32.523332,48.755368 53.777136,61.332008 -103.2052461,-25.72677 -150.339073,44.80901 -16.52643,73.83897 11.44615,2.4837 33.405774,3.37271 33.349134,6.6692 -0.006,3.54407 -56.417927,3.83936 -86.174297,4.74779 20.295656,5.42811 69.093083,9.12168 100.822387,6.11416 30.84049,-2.91787 44.31006,-13.38947 5.41429,-22.95888 -20.07509,-4.93598 -98.74908,-19.8578 -90.460534,-35.75657 12.108047,-23.21755 64.435444,-17.62607 94.923034,-20.79695 -74.955233,-51.529008 -91.960742,-63.670508 9.75698,-50.406928 26.61129,5.907 -11.25522,-37.39928 -50.954754,-55.51067 -9.3236,-3.69985 -21.746564,-6.55783 -33.251597,-8.33321"
     fill="#61afee"
     id="path2"
     style="stroke-width:1.86917" />
</svg>
